<?xml version="1.0" standalone="no"?>
<!DOCTYPE svg PUBLIC "-//W3C//DTD SVG 20010904//EN"
 "http://www.w3.org/TR/2001/REC-SVG-20010904/DTD/svg10.dtd">
<svg version="1.0" xmlns="http://www.w3.org/2000/svg"
 width="192.000000pt" height="192.000000pt" viewBox="0 0 192.000000 192.000000"
 preserveAspectRatio="xMidYMid meet">
<metadata>
Created by potrace 1.14, written by Peter Selinger 2001-2017
</metadata>
<g transform="translate(0.000000,192.000000) scale(0.100000,-0.100000)"
fill="#000000" stroke="none">
<path d="M164 1899 c-41 -8 -75 -27 -103 -58 -53 -58 -51 -31 -51 -887 l0
-796 25 -47 c29 -53 73 -86 130 -98 22 -5 389 -8 815 -7 849 1 816 -1 874 60
58 62 56 28 56 891 0 859 2 830 -54 886 -65 65 -12 61 -877 62 -433 0 -800 -2
-815 -6z"/>
</g>
</svg>
